Coordinates
version=1
nRows=7
nColumns=40
inDegrees=yes

Units are S.I. units (second, meters, Newtons, ...)
Angles are in degrees.

endheader
time	pelvis_tilt	pelvis_list	pelvis_rotation	pelvis_tx	pelvis_ty	pelvis_tz	hip_flexion_r	hip_adduction_r	hip_rotation_r	knee_angle_r	knee_angle_r_beta	ankle_angle_r	subtalar_angle_r	mtp_angle_r	hip_flexion_l	hip_adduction_l	hip_rotation_l	knee_angle_l	knee_angle_l_beta	ankle_angle_l	subtalar_angle_l	mtp_angle_l	lumbar_extension	lumbar_bending	lumbar_rotation	arm_flex_r	arm_add_r	arm_rot_r	elbow_flex_r	pro_sup_r	wrist_flex_r	wrist_dev_r	arm_flex_l	arm_add_l	arm_rot_l	elbow_flex_l	pro_sup_l	wrist_flex_l	wrist_dev_l
      0.22000000	     -3.50545345	     -2.92652525	      3.57731690	     -0.39368216	      0.88622755	      1.12288555	     23.24786000	      0.06847891	    -14.43919512	    -28.02084440	     -0.48905599	      4.12409859	     -8.90094720	     10.18496656	      7.27709894	      5.67628283	      0.80959131	    -58.37849560	     -1.01889696	    -16.81253741	     14.15348368	     -3.23082198	     -2.23760794	      3.19980055	    -12.12951822	     -7.46228213	    -11.00444387	    -19.34568525	     19.43705121	     89.95437384	      0.00000000	      0.00000000	     -6.01125886	     13.00707262	     14.97175835	     66.32368936	     89.95437384	      0.00000000	      0.00000000
      0.23000000	     -3.55009092	     -3.01044447	      3.40384937	     -0.38112332	      0.88767079	      1.12439757	     22.07183270	      0.36099057	    -14.68771739	    -27.45720061	     -0.47921855	      4.76594212	     -8.28621332	      9.91553928	      9.17872625	      5.71580691	      1.10869424	    -60.53124539	     -1.05646953	    -16.08008667	     15.56411680	     -2.88882828	     -2.26416006	      3.43531398	    -11.59249696	     -6.91305364	    -10.95333346	    -19.05778684	     20.67256640	     89.95437384	      0.00000000	      0.00000000	     -6.61236649	     12.59564315	     14.99780590	     64.92896419	     89.95437384	      0.00000000	      0.00000000
      0.24000000	     -3.56496063	     -2.97738205	      3.28892683	     -0.36865055	      0.88917083	      1.12576785	     20.83885312	      0.50970976	    -14.91452750	    -26.87561418	     -0.46906796	      5.39518628	     -7.71437779	      9.63000896	     11.04112165	      5.62265689	      1.41795360	    -62.35694650	     -1.08833403	    -15.28346449	     16.53352939	     -2.54392228	     -2.34414645	      3.51628298	    -11.10765916	     -6.36021977	    -10.87212344	    -18.75236674	     21.98330489	     89.95437384	      0.00000000	      0.00000000	     -7.19772419	     12.27055648	     14.94076734	     63.48813426	     89.95437384	      0.00000000	      0.00000000
      0.25000000	     -3.58283017	     -2.74928321	      3.10933358	     -0.35610602	      0.89066121	      1.12705727	     19.68358705	      0.31953848	    -15.38393129	    -26.49304950	     -0.46239094	      5.89234222	     -6.48584227	      7.93417859	     12.90383703	      5.25529841	      1.85356193	    -64.12358560	     -1.11916770	    -12.59465660	     16.12825413	     10.64336281	     -2.42545655	      3.36624067	    -10.55313363	     -5.93655727	    -10.80890350	    -18.25097786	     23.55971446	     89.95437384	      0.00000000	      0.00000000	     -7.79803728	     11.95227264	     14.87955217	     62.02763131	     89.95437384	      0.00000000	      0.00000000
      0.26000000	     -3.49066284	     -2.56616082	      2.81692480	     -0.34338549	      0.89234743	      1.12883145	     18.30401581	      0.41243031	    -15.19186624	    -25.83985398	     -0.45099053	      6.50135375	     -6.00428121	      7.68568199	     14.44242389	      5.03678357	      2.36132094	    -65.24179836	     -1.13868419	    -11.30167959	     16.68303923	     10.43989723	     -2.60273511	      3.20111588	     -9.90026090	     -5.37542842	    -10.65625735	    -18.02529741	     24.94698002	     89.95437384	      0.00000000	      0.00000000	     -8.37913592	     11.69800731	     14.85204461	     60.41842717	     89.95437384	      0.00000000	      0.00000000
      0.27000000	     -3.37251590	     -2.47550275	      2.49535148	     -0.33077280	      0.89387748	      1.13070964	     16.94193057	      0.58233021	    -15.03712704	    -25.25590209	     -0.44079865	      7.06085702	     -5.45935300	      7.40847215	     15.92699407	      4.96354467	      2.93134660	    -66.15428918	     -1.15461016	     -9.69353640	     17.06759856	     10.31982063	     -2.84209781	      3.13180968	     -9.16465115	     -4.98193234	    -10.53727299	    -17.77418594	     26.72730879	     89.95437384	      0.00000000	      0.00000000	     -8.91366529	     11.44013550	     14.83409715	     58.81646976	     89.95437384	      0.00000000	      0.00000000
      0.28000000	     -3.30184944	     -2.32217708	      2.08001530	     -0.31829242	      0.89525691	      1.13261054	     15.64865101	      0.71429528	    -14.78969030	    -24.63221885	     -0.42991332	      7.52747191	     -5.04461247	      7.12744824	     17.40195431	      4.84291464	      3.57861707	    -66.74026940	     -1.16483744	     -7.89612988	     17.35720037	     10.26900606	     -3.03833452	      2.97425304	     -8.34036432	     -4.57897880	    -10.42568996	    -17.45248430	     28.52375828	     89.95437384	      0.00000000	      0.00000000	     -9.49107260	     11.33975862	     14.55699264	     57.21503665	     89.95437384	      0.00000000	      0.00000000
